<svg version="1.0" xmlns="http://www.w3.org/2000/svg"
 width="160" height="160" viewBox="0 0 500.000000 500.000000"
 preserveAspectRatio="xMidYMid meet">

<g transform="translate(0.000000,500.000000) scale(0.100000,-0.100000)"
fill="#000000" stroke="none">
<path d="M937 2993 c-4 -3 -7 -195 -7 -425 l0 -418 70 0 70 0 0 175 0 175 225
0 225 0 0 -175 0 -175 70 0 70 0 0 425 0 426 -67 -3 -68 -3 -3 -182 -2 -183
-225 0 -225 0 0 185 0 185 -63 0 c-35 0 -67 -3 -70 -7z"/>
<path d="M2362 2693 c3 -290 4 -311 24 -354 31 -67 87 -124 152 -156 53 -26
66 -28 182 -28 114 0 130 2 181 26 71 33 125 87 158 158 26 56 26 56 29 359
l3 302 -70 0 -71 0 0 -274 c0 -303 -5 -334 -62 -393 -76 -79 -231 -84 -314
-11 -68 60 -68 62 -74 383 l-5 290 -68 3 -68 3 3 -308z"/>
<path d="M3787 2993 c-4 -3 -7 -195 -7 -425 l0 -418 70 0 70 0 0 425 0 425
-63 0 c-35 0 -67 -3 -70 -7z"/>
</g>
</svg>
